<?xml version="1.0" encoding="UTF-8"?>
<!DOCTYPE svg PUBLIC "-//W3C//DTD SVG 1.1//EN" "http://www.w3.org/Graphics/SVG/1.1/DTD/svg11.dtd">
<svg xmlns="http://www.w3.org/2000/svg" version="1.1" width="735px" height="324px" style="shape-rendering:geometricPrecision; text-rendering:geometricPrecision; image-rendering:optimizeQuality; fill-rule:evenodd; clip-rule:evenodd" xmlns:xlink="http://www.w3.org/1999/xlink">
<g><path style="opacity:1" fill="#1fbbd7" d="M -0.5,-0.5 C 244.5,-0.5 489.5,-0.5 734.5,-0.5C 734.5,107.5 734.5,215.5 734.5,323.5C 489.5,323.5 244.5,323.5 -0.5,323.5C -0.5,215.5 -0.5,107.5 -0.5,-0.5 Z"/></g>
<g><path style="opacity:1" fill="#fafdfe" d="M 157.5,86.5 C 172.071,91.5556 183.238,100.889 191,114.5C 202.54,137.975 202.206,161.309 190,184.5C 176.628,204.685 157.795,215.352 133.5,216.5C 133.5,221.167 133.5,225.833 133.5,230.5C 138.844,230.334 144.177,230.501 149.5,231C 150.451,231.718 150.617,232.551 150,233.5C 137.242,234.655 124.409,234.822 111.5,234C 110.167,233 110.167,232 111.5,231C 117.491,230.501 123.491,230.334 129.5,230.5C 129.5,225.833 129.5,221.167 129.5,216.5C 120.439,216.568 111.773,214.735 103.5,211C 101.606,209.921 101.273,208.587 102.5,207C 131.866,217.994 157.7,212.494 180,190.5C 200.665,162.487 200.665,134.487 180,106.5C 173.821,99.8182 166.654,94.4849 158.5,90.5C 157.571,89.3112 157.238,87.9778 157.5,86.5 Z"/></g>
<g><path style="opacity:1" fill="#f4fbfc" d="M 123.5,95.5 C 156.756,94.5239 176.922,110.191 184,142.5C 185.49,167.696 174.99,185.863 152.5,197C 134.541,204.447 117.708,202.614 102,191.5C 100.867,193.211 99.3668,193.711 97.5,193C 95.04,191.542 92.8734,189.709 91,187.5C 88.8762,188.622 87.0429,190.122 85.5,192C 83.9556,193.187 82.2889,193.52 80.5,193C 79.8543,187.552 79.1876,182.052 78.5,176.5C 71.4613,173.722 64.7947,170.389 58.5,166.5C 59.09,165.201 60.09,164.368 61.5,164C 67.515,163.084 73.3483,161.584 79,159.5C 76.4478,125.911 91.2812,104.578 123.5,95.5 Z"/></g>
<g><path style="opacity:1" fill="#21bbd7" d="M 120.5,100.5 C 149.991,97.3158 169.491,109.649 179,137.5C 182.729,167.566 170.229,187.066 141.5,196C 134.5,196.667 127.5,196.667 120.5,196C 114.907,194.537 109.907,192.037 105.5,188.5C 115.811,175.688 126.311,163.021 137,150.5C 137.915,148.08 137.082,146.747 134.5,146.5C 117.65,151.251 100.65,155.251 83.5,158.5C 80.7437,129.311 93.077,109.978 120.5,100.5 Z"/></g>
<g><path style="opacity:1" fill="#fdfefe" d="M 282.5,167.5 C 282.34,169.199 282.506,170.866 283,172.5C 284.128,170.655 284.628,168.655 284.5,166.5C 285.833,146.832 287.167,127.165 288.5,107.5C 295.5,107.5 302.5,107.5 309.5,107.5C 305.669,142.817 302.002,178.15 298.5,213.5C 289.915,213.817 281.415,213.483 273,212.5C 271.745,197.465 270.245,182.465 268.5,167.5C 268.657,166.127 268.49,164.793 268,163.5C 267.023,165.74 266.523,168.073 266.5,170.5C 265.02,184.819 263.687,199.152 262.5,213.5C 253.833,213.5 245.167,213.5 236.5,213.5C 233.491,178.417 229.824,143.417 225.5,108.5C 232.468,107.503 239.468,107.17 246.5,107.5C 247.762,128.88 249.595,150.213 252,171.5C 254.405,150.213 256.238,128.879 257.5,107.5C 264.167,107.5 270.833,107.5 277.5,107.5C 279.286,127.484 280.953,147.484 282.5,167.5 Z"/></g>
<g><path style="opacity:1" fill="#a0e2ee" d="M 489.5,107.5 C 482.5,107.5 475.5,107.5 468.5,107.5C 468.83,114.2 468.497,120.866 467.5,127.5C 466.893,127.376 466.56,127.043 466.5,126.5C 467.491,120.021 467.824,113.354 467.5,106.5C 475.019,106.175 482.352,106.508 489.5,107.5 Z"/></g>
<g><path style="opacity:1" fill="#fefefe" d="M 489.5,107.5 C 489.5,142.5 489.5,177.5 489.5,212.5C 482.5,212.5 475.5,212.5 468.5,212.5C 468.664,209.813 468.497,207.146 468,204.5C 467.283,205.044 466.783,205.711 466.5,206.5C 461.78,214.128 455.113,216.295 446.5,213C 440.937,209.386 437.77,204.219 437,197.5C 436.333,177.167 436.333,156.833 437,136.5C 441.611,123.612 450.445,119.446 463.5,124C 464.571,124.852 465.571,125.685 466.5,126.5C 466.56,127.043 466.893,127.376 467.5,127.5C 468.497,120.866 468.83,114.2 468.5,107.5C 475.5,107.5 482.5,107.5 489.5,107.5 Z"/></g>
<g><path style="opacity:1" fill="#fdfefe" d="M 366.5,139.5 C 366.5,163.833 366.5,188.167 366.5,212.5C 359.833,212.5 353.167,212.5 346.5,212.5C 346.665,209.15 346.498,205.817 346,202.5C 345.283,203.044 344.783,203.711 344.5,204.5C 342.46,211.028 337.96,214.361 331,214.5C 323.333,213.833 318.333,209.833 316,202.5C 314.546,194.214 314.213,185.881 315,177.5C 316.591,168.571 321.758,162.738 330.5,160C 335.429,158.19 340.429,156.69 345.5,155.5C 345.666,150.821 345.499,146.155 345,141.5C 342.633,138.068 339.966,137.735 337,140.5C 336.502,143.482 336.335,146.482 336.5,149.5C 329.5,149.5 322.5,149.5 315.5,149.5C 313.362,135.915 318.695,127.081 331.5,123C 339.663,121.95 347.663,122.617 355.5,125C 361.459,128.08 365.126,132.914 366.5,139.5 Z"/></g>
<g><path style="opacity:1" fill="#fefefe" d="M 427.5,136.5 C 427.5,161.833 427.5,187.167 427.5,212.5C 420.833,212.5 414.167,212.5 407.5,212.5C 407.667,189.164 407.5,165.831 407,142.5C 405.022,138.13 402.189,137.464 398.5,140.5C 397.902,141.795 397.402,143.128 397,144.5C 396.5,167.498 396.333,190.498 396.5,213.5C 389.5,213.5 382.5,213.5 375.5,213.5C 375.5,183.5 375.5,153.5 375.5,123.5C 382.5,123.5 389.5,123.5 396.5,123.5C 396.335,126.85 396.502,130.183 397,133.5C 400.152,123.84 406.652,120.34 416.5,123C 423.113,125.04 426.779,129.54 427.5,136.5 Z"/></g>
<g><path style="opacity:1" fill="#fdfefe" d="M 550.5,169.5 C 539.833,169.5 529.167,169.5 518.5,169.5C 518.175,177.352 518.508,185.018 519.5,192.5C 519.822,196.976 522.156,198.476 526.5,197C 527,196.5 527.5,196 528,195.5C 529.404,189.956 529.904,184.29 529.5,178.5C 536.5,178.5 543.5,178.5 550.5,178.5C 551.236,188.887 549.069,198.554 544,207.5C 535.698,213.095 526.532,215.262 516.5,214C 507.325,212.003 501.491,206.503 499,197.5C 497.443,178.531 497.11,159.531 498,140.5C 500.5,131.333 506.333,125.5 515.5,123C 525.008,121.356 534.008,122.689 542.5,127C 545.531,129.559 547.698,132.726 549,136.5C 550.431,147.422 550.931,158.422 550.5,169.5 Z"/></g>
<g><path style="opacity:1" fill="#fdfefe" d="M 589.5,122.5 C 591.5,122.5 593.5,122.5 595.5,122.5C 595.5,128.5 595.5,134.5 595.5,140.5C 589.939,139.802 584.773,140.802 580,143.5C 579.5,166.831 579.333,190.164 579.5,213.5C 572.5,213.5 565.5,213.5 558.5,213.5C 558.5,183.5 558.5,153.5 558.5,123.5C 565.5,123.5 572.5,123.5 579.5,123.5C 579.335,126.518 579.502,129.518 580,132.5C 582.022,127.98 585.189,124.647 589.5,122.5 Z"/></g>
<g><path style="opacity:1" fill="#fdfefe" d="M 619.5,122.5 C 627.813,121.752 635.813,122.918 643.5,126C 648.239,129.313 651.072,133.813 652,139.5C 652.5,149.494 652.666,159.494 652.5,169.5C 642.167,169.5 631.833,169.5 621.5,169.5C 621.334,177.507 621.5,185.507 622,193.5C 623.334,197.104 625.834,198.271 629.5,197C 630.126,196.25 630.626,195.416 631,194.5C 631.499,189.177 631.666,183.844 631.5,178.5C 638.5,178.5 645.5,178.5 652.5,178.5C 656.011,204.149 645.011,215.982 619.5,214C 608.433,211.599 602.266,204.766 601,193.5C 600.333,175.167 600.333,156.833 601,138.5C 604.167,129.526 610.334,124.193 619.5,122.5 Z"/></g>
<g><path style="opacity:1" fill="#fdfefe" d="M 682.5,212.5 C 675.5,212.5 668.5,212.5 661.5,212.5C 661.5,182.833 661.5,153.167 661.5,123.5C 668.5,123.5 675.5,123.5 682.5,123.5C 682.336,126.187 682.503,128.854 683,131.5C 685.678,125.076 690.511,122.076 697.5,122.5C 697.5,128.167 697.5,133.833 697.5,139.5C 692.238,139.515 687.405,140.848 683,143.5C 682.5,166.498 682.333,189.498 682.5,212.5 Z"/></g>
<g><path style="opacity:1" fill="#b0e7f0" d="M 682.5,123.5 C 675.5,123.5 668.5,123.5 661.5,123.5C 661.5,153.167 661.5,182.833 661.5,212.5C 668.5,212.5 675.5,212.5 682.5,212.5C 675.352,213.492 668.019,213.825 660.5,213.5C 660.5,183.167 660.5,152.833 660.5,122.5C 668.019,122.175 675.352,122.508 682.5,123.5 Z"/></g>
<g><path style="opacity:1" fill="#37bfd9" d="M 521.5,138.5 C 525.182,137.725 527.682,139.059 529,142.5C 529.499,148.157 529.666,153.824 529.5,159.5C 525.833,159.5 522.167,159.5 518.5,159.5C 518.334,154.156 518.501,148.823 519,143.5C 519.366,141.548 520.199,139.882 521.5,138.5 Z"/></g>
<g><path style="opacity:1" fill="#26bcd7" d="M 623.5,138.5 C 625.527,138.338 627.527,138.505 629.5,139C 630.126,139.75 630.626,140.584 631,141.5C 631.499,147.491 631.666,153.491 631.5,159.5C 628.167,159.5 624.833,159.5 621.5,159.5C 621.334,153.491 621.501,147.491 622,141.5C 622.513,140.473 623.013,139.473 623.5,138.5 Z"/></g>
<g><path style="opacity:1" fill="#34bed9" d="M 460.5,138.5 C 464.917,138.082 467.417,140.082 468,144.5C 468.667,160.167 468.667,175.833 468,191.5C 467.256,196.53 464.589,198.197 460,196.5C 459.333,195.167 458.667,193.833 458,192.5C 457.333,175.833 457.333,159.167 458,142.5C 458.662,141.016 459.496,139.683 460.5,138.5 Z"/></g>
<g><path style="opacity:1" fill="#d3f1f6" d="M 427.5,136.5 C 428.498,161.995 428.831,187.661 428.5,213.5C 421.313,213.825 414.313,213.491 407.5,212.5C 414.167,212.5 420.833,212.5 427.5,212.5C 427.5,187.167 427.5,161.833 427.5,136.5 Z"/></g>
<g><path style="opacity:1" fill="#3ac0da" d="M 113.5,155.5 C 114.552,155.351 115.552,155.517 116.5,156C 104.906,161.713 93.4065,167.547 82,173.5C 77.1642,171.999 72.6642,169.832 68.5,167C 83.7006,163.466 98.7006,159.633 113.5,155.5 Z"/></g>
<g><path style="opacity:1" fill="#2ebdd8" d="M 122.5,157.5 C 124.028,157.517 124.528,158.184 124,159.5C 115.833,169 107.667,178.5 99.5,188C 98.8333,188.667 98.1667,188.667 97.5,188C 93.8333,184.333 90.1667,180.667 86.5,177C 98.4022,170.217 110.402,163.717 122.5,157.5 Z"/></g>
<g><path style="opacity:1" fill="#8adbe9" d="M 268.5,167.5 C 267.833,168.5 267.167,169.5 266.5,170.5C 266.523,168.073 267.023,165.74 268,163.5C 268.49,164.793 268.657,166.127 268.5,167.5 Z"/></g>
<g><path style="opacity:1" fill="#33bfd9" d="M 343.5,165.5 C 344.827,169.951 345.494,174.784 345.5,180C 345.333,184.833 345.167,189.667 345,194.5C 340.872,198.885 337.872,198.218 336,192.5C 335.116,185.418 335.449,178.418 337,171.5C 339.063,169.266 341.229,167.266 343.5,165.5 Z"/></g>
<g><path style="opacity:1" fill="#e7f7fa" d="M 26.5,167.5 C 27.9953,167.415 28.9953,168.081 29.5,169.5C 27.6136,170.406 25.7803,171.406 24,172.5C 23.3076,171.975 22.8076,171.308 22.5,170.5C 23.9014,169.479 25.2347,168.479 26.5,167.5 Z"/></g>
<g><path style="opacity:1" fill="#f1fafc" d="M 35.5,169.5 C 37.3084,169.491 38.9751,169.991 40.5,171C 41.731,172.183 41.731,173.349 40.5,174.5C 38.0544,173.476 36.3877,171.809 35.5,169.5 Z"/></g>
<g><path style="opacity:1" fill="#a1e1ee" d="M 550.5,169.5 C 540.347,170.494 530.014,170.828 519.5,170.5C 519.5,177.833 519.5,185.167 519.5,192.5C 518.508,185.018 518.175,177.352 518.5,169.5C 529.167,169.5 539.833,169.5 550.5,169.5 Z"/></g>
<g><path style="opacity:1" fill="#9ee1ed" d="M 284.5,166.5 C 284.628,168.655 284.128,170.655 283,172.5C 282.506,170.866 282.34,169.199 282.5,167.5C 283.167,167.167 283.833,166.833 284.5,166.5 Z"/></g>
<g><path style="opacity:1" fill="#effafc" d="M 16.5,176.5 C 17.6935,176.97 18.3601,177.97 18.5,179.5C 18.6578,181.319 17.9911,182.652 16.5,183.5C 15.2857,181.141 15.2857,178.808 16.5,176.5 Z"/></g>
<g><path style="opacity:1" fill="#fdfefe" d="M 43.5,179.5 C 44.7251,180.152 45.3917,181.319 45.5,183C 45.1667,184.167 44.8333,185.333 44.5,186.5C 43.5258,184.257 43.1924,181.924 43.5,179.5 Z"/></g>
<g><path style="opacity:1" fill="#43c3db" d="M 84.5,181.5 C 87.9679,183.044 88.1346,184.71 85,186.5C 84.5065,184.866 84.3398,183.199 84.5,181.5 Z"/></g>
<g><path style="opacity:1" fill="#fbfdfe" d="M 67.5,183.5 C 71.3389,184.05 71.3389,185.05 67.5,186.5C 66.4376,185.575 66.4376,184.575 67.5,183.5 Z"/></g>
<g><path style="opacity:1" fill="#f9fdfd" d="M 17.5,189.5 C 19.9732,189.736 21.6399,191.069 22.5,193.5C 19.8534,193.895 18.1867,192.562 17.5,189.5 Z"/></g>
<g><path style="opacity:1" fill="#f1fafc" d="M 58.5,188.5 C 60.4646,188.948 60.7979,189.948 59.5,191.5C 53.1633,193.749 52.83,192.749 58.5,188.5 Z"/></g>
<g><path style="opacity:1" fill="#eef9fb" d="M 40.5,192.5 C 42.0481,192.821 42.7148,193.821 42.5,195.5C 44.2624,195.643 45.9291,195.309 47.5,194.5C 48.3857,195.325 48.719,196.325 48.5,197.5C 44.7276,198.259 41.061,198.592 37.5,198.5C 37.615,196.053 38.615,194.053 40.5,192.5 Z"/></g>
<g><path style="opacity:1" fill="#f6fcfd" d="M 28.5,196.5 C 37.6914,198.082 37.6914,199.082 28.5,199.5C 28.5,198.5 28.5,197.5 28.5,196.5 Z"/></g>
<g><path style="opacity:1" fill="#f5fcfd" d="M 1.5,200.5 C 6.63929,201.941 6.63929,202.941 1.5,203.5C 1.5,202.5 1.5,201.5 1.5,200.5 Z"/></g>
<g><path style="opacity:1" fill="#e5f6fa" d="M 29.5,200.5 C 30.7562,200.461 31.7562,200.961 32.5,202C 30.6909,204.238 28.3576,205.405 25.5,205.5C 25.281,204.325 25.6143,203.325 26.5,202.5C 27.7387,202.058 28.7387,201.391 29.5,200.5 Z"/></g>
<g><path style="opacity:1" fill="#f1fafc" d="M 12.5,203.5 C 21.8333,204.5 21.8333,205.5 12.5,206.5C 12.5,205.5 12.5,204.5 12.5,203.5 Z"/></g>
<g><path style="opacity:1" fill="#b8e8f2" d="M 366.5,139.5 C 367.498,163.994 367.831,188.661 367.5,213.5C 360.167,213.5 352.833,213.5 345.5,213.5C 345.81,210.287 345.477,207.287 344.5,204.5C 344.783,203.711 345.283,203.044 346,202.5C 346.498,205.817 346.665,209.15 346.5,212.5C 353.167,212.5 359.833,212.5 366.5,212.5C 366.5,188.167 366.5,163.833 366.5,139.5 Z"/></g>
<g><path style="opacity:1" fill="#b6e8f1" d="M 489.5,212.5 C 482.352,213.492 475.019,213.825 467.5,213.5C 467.802,210.941 467.468,208.607 466.5,206.5C 466.783,205.711 467.283,205.044 468,204.5C 468.497,207.146 468.664,209.813 468.5,212.5C 475.5,212.5 482.5,212.5 489.5,212.5 Z"/></g>
</svg>
